<?xml version="1.0" encoding="UTF-8"?>
<svg id="Layer_1" data-name="Layer 1" xmlns="http://www.w3.org/2000/svg" viewBox="0 0 250 250">
  <defs>
    <style>
      .cls-1 {
        fill: #fff;
      }
    </style>
  </defs>
  <path class="cls-1" d="M49.7,226.86h-23.87V19.33h207.53v86.98c-.8-1.5-2.42-3.24-4.25-3.24h-32.97v-9.1c0-1.86-3.3-3.64-5.04-3.46l-85.78.02c-3.39.22-5.96,3.2-3.93,6.36.25.39,1.75,1.73,1.91,1.73h84.75c-.61,15.78,1.54,32.25-1.82,47.74-4.44,20.54-17.86,38.83-35.82,49.54l-77.84.2c-19.02-10.68-32.97-30.59-36.91-52.09-2.7-14.73-.74-30.43-1.34-45.38h28.52c.17,0,1.66-1.34,1.91-1.73,1.93-3.02-.32-5.93-3.57-6.33-9.54.84-21.42-1.26-30.67,0-2.38.32-4.19,1.72-4.28,4.21.26,25.76-2.86,50,9.23,73.7,5.47,10.72,13.5,19.61,22.32,27.64h-28.52c-.49,0-2.49,1.93-2.73,2.53-1.04,2.58.43,8.29,1.41,10.92,3.57,9.59,11.86,15.48,21.75,17.29ZM109.08,19.82c-4.88.7-6.73,11.14-6.39,15.11.89,10.53,12.63,13.99,8.01,26.19-1.05,2.79-4.5,5.42-4.77,7.77-.56,4.86,4.15,6.13,7.5,2.64,6.2-6.46,8.12-16.14,4.59-24.42-2.66-6.24-8.47-8.7-7.13-16.55.54-3.15,3.69-4.82,2.55-8.41-.51-1.62-2.82-2.55-4.36-2.33ZM85.99,29.13c-3.49.8-6.02,9.91-5.98,13.06.15,12.42,14.96,16.66,7.08,30.11-1.67,2.86-5.61,5.42-2.82,8.95,3.76,4.75,8.72-2.69,10.4-5.82,3.49-6.52,3.6-13.72.41-20.37-2.91-6.07-9.15-8.83-6.16-16.94.94-2.54,3.13-3.57,2.18-6.59-.7-2.23-2.92-2.9-5.11-2.4ZM130.9,29.13c-3.89.89-6.15,10.44-5.96,13.89.64,11.72,14.96,16.51,6.9,29.53-1.65,2.66-5.27,5.08-2.84,8.48,3.7,5.18,8.86-2.33,10.59-5.59,3.57-6.73,3.55-14.44-.06-21.12-2.8-5.19-7.51-7.47-6.3-14.37.59-3.42,4.87-6.41,2.07-9.71-1.06-1.25-2.85-1.45-4.39-1.1ZM81.4,97.67c3.99,3.96,9.98-3.18,4.93-6.34-4.09-2.56-8.32,2.98-4.93,6.34ZM171.76,125.81c-3.64.81-2.84,4.53-3.13,7-1.34,11.56-4.02,20.89-10.83,30.43-1.39,1.95-6.36,7.05-6.77,8.59-.81,3.04,1.36,5.65,4.42,5.27,1.89-.24,5.98-5.25,7.28-6.91,5.97-7.63,10.81-17.85,12.67-27.38.58-3.01,2.08-12.43.88-14.8-.81-1.58-2.75-2.59-4.51-2.2ZM144.24,180.06c-3.66-3.23-9.36,2.44-5.56,6.17s9.66-2.55,5.56-6.17Z"/>
  <path d="M49.7,226.86c-9.89-1.81-18.18-7.7-21.75-17.29-.98-2.63-2.45-8.34-1.41-10.92.24-.6,2.24-2.53,2.73-2.53h28.52c-8.83-8.02-16.85-16.92-22.32-27.64-12.1-23.69-8.97-47.93-9.23-73.7.1-2.49,1.91-3.89,4.28-4.21,9.26-1.26,21.14.84,30.67,0,3.25.4,5.5,3.31,3.57,6.33-.25.39-1.75,1.73-1.91,1.73h-28.52c.61,14.96-1.36,30.65,1.34,45.38,3.94,21.5,17.89,41.41,36.91,52.09l77.84-.2c17.97-10.7,31.38-28.99,35.82-49.54,3.35-15.49,1.2-31.96,1.82-47.74h-84.75c-.17,0-1.66-1.34-1.91-1.73-2.03-3.17.54-6.15,3.93-6.36l85.78-.02c1.75-.18,5.04,1.59,5.04,3.46v9.1h32.97c1.83,0,3.45,1.74,4.25,3.24v33.98c-.82,2.61-1.08,5.37-1.92,7.99-4.19,13.16-15.99,23.73-29.62,26.2-6.25,1.13-12.62.31-18.95.68-4.72,8.13-11.55,14.54-18.29,20.95h38.23c.49,0,2.49,1.93,2.73,2.53,1.04,2.58-.43,8.29-1.41,10.92-3.57,9.59-11.86,15.48-21.75,17.29H49.7ZM225.27,111.57h-29.13v7.69h16.79c2.19,0,4,2.1,4.26,4.24.53,4.38.28,15.15-.93,19.31-3.22,11.03-14.1,17.3-25.31,16.15l-3.29,8.04h10.72c12.15,0,26.9-15.68,26.9-27.71v-27.71ZM209.09,127.75h-12.95c.35,7.8-1.08,15.45-2.43,23.06,6.21.54,12.46-3.76,14.48-9.59.18-.53.9-2.84.9-3.15v-10.32ZM197.36,204.21H34.74c2,7.91,8.63,13.72,16.79,14.56l128.25.02c8.66-.6,15.39-6.25,17.58-14.58Z"/>
  <path class="cls-1" d="M233.36,140.29v86.57h-50.97c9.89-1.81,18.18-7.7,21.75-17.29.98-2.64,2.45-8.34,1.41-10.92-.24-.6-2.24-2.53-2.73-2.53h-38.23c6.74-6.41,13.57-12.82,18.29-20.95,6.33-.37,12.69.46,18.95-.68,13.64-2.48,25.44-13.05,29.62-26.2.83-2.62,1.1-5.38,1.92-7.99Z"/>
  <path d="M130.9,29.13c1.54-.35,3.33-.15,4.39,1.1,2.8,3.3-1.47,6.3-2.07,9.71-1.2,6.91,3.5,9.19,6.3,14.37,3.61,6.68,3.64,14.39.06,21.12-1.73,3.26-6.9,10.77-10.59,5.59-2.43-3.41,1.19-5.82,2.84-8.48,8.06-13.02-6.26-17.8-6.9-29.53-.19-3.45,2.07-13,5.96-13.89Z"/>
  <path d="M109.08,19.82c1.55-.22,3.85.71,4.36,2.33,1.14,3.59-2.02,5.26-2.55,8.41-1.34,7.85,4.46,10.31,7.13,16.55,3.53,8.28,1.61,17.96-4.59,24.42-3.35,3.49-8.06,2.22-7.5-2.64.27-2.35,3.72-4.98,4.77-7.77,4.61-12.2-7.12-15.66-8.01-26.19-.34-3.97,1.51-14.41,6.39-15.11Z"/>
  <path d="M85.99,29.13c2.18-.5,4.4.18,5.11,2.4.96,3.02-1.24,4.05-2.18,6.59-2.99,8.1,3.25,10.86,6.16,16.94,3.19,6.65,3.08,13.85-.41,20.37-1.68,3.13-6.64,10.57-10.4,5.82-2.79-3.53,1.14-6.09,2.82-8.95,7.88-13.44-6.93-17.68-7.08-30.11-.04-3.15,2.5-12.26,5.98-13.06Z"/>
  <path d="M171.76,125.81c1.76-.39,3.7.62,4.51,2.2,1.21,2.36-.29,11.79-.88,14.8-1.85,9.54-6.7,19.75-12.67,27.38-1.3,1.66-5.39,6.67-7.28,6.91-3.06.39-5.23-2.23-4.42-5.27.41-1.54,5.38-6.64,6.77-8.59,6.81-9.54,9.49-18.87,10.83-30.43.29-2.47-.51-6.19,3.13-7Z"/>
  <path d="M144.24,180.06c4.09,3.62-1.69,9.96-5.56,6.17s1.9-9.4,5.56-6.17Z"/>
  <path d="M81.4,97.67c-3.39-3.37.84-8.9,4.93-6.34,5.05,3.16-.94,10.3-4.93,6.34Z"/>
  <path class="cls-1" d="M197.36,204.21c-2.19,8.33-8.92,13.98-17.58,14.58l-128.25-.02c-8.17-.83-14.8-6.65-16.79-14.56h162.63Z"/>
  <path class="cls-1" d="M225.27,111.57v27.71c0,12.03-14.75,27.71-26.9,27.71h-10.72l3.29-8.04c11.22,1.15,22.09-5.12,25.31-16.15,1.21-4.16,1.46-14.93.93-19.31-.26-2.14-2.07-4.24-4.26-4.24h-16.79v-7.69h29.13Z"/>
  <path class="cls-1" d="M209.09,127.75v10.32c0,.31-.71,2.61-.9,3.15-2.01,5.83-8.27,10.14-14.48,9.59,1.35-7.61,2.78-15.26,2.43-23.06h12.95Z"/>
</svg>
