<svg xmlns="http://www.w3.org/2000/svg" xml:space="preserve" width="512" height="512" id="lotus">
  <path fill="#334D5C" d="M7.9 256C7.9 119 119 7.9 256 7.9S504.1 119 504.1 256 393 504.1 256 504.1 7.9 393 7.9 256z"></path>
  <path fill="#F2A5A5" d="M257 355.3c.1 0 .3 0 .4-.1-.1-.1-.1-.2-.2-.2 0 .1-.1.2-.2.3z"></path>
  <g fill="#F2A5A5">
    <path d="M332.7 318.8h-.3l.2.2c.1 0 .1-.1.1-.2zM256 141.1c-69.9 69.9-69.9 183.2 0 253.2v.1c69.9-70 69.9-183.4 0-253.3zM179.3 318.9v.2c.1-.1.2-.1.2-.2h-.2z"></path>
  </g>
  <path fill="#F2A5A5" d="M296 294.4c-.1 0-.1.1-.2.1.1 0 .2 0 .3.1-.1 0-.1-.1-.1-.2z"></path>
  <path fill="#E28D8D" d="M154.3 162.5c-36 92.1 9.6 195.9 101.7 231.9v.1c36-92.2-9.6-196.1-101.7-232z"></path>
  <path fill="#F2A5A5" d="M155.5 356.1c0 .1.1.1.1.2 0-.1.1-.2.1-.2h-.2zM215.6 294.4c.1 0 .1.1.2.1-.1 0-.2 0-.3.1 0 0 .1-.1.1-.2z"></path>
  <path fill="#E28D8D" d="M357.2 162.5c36 92.1-9.5 195.9-101.7 231.9v.1c-35.9-92.2 9.6-196.1 101.7-232z"></path>
  <path fill="#F2A5A5" d="M356.1 356.1c0 .1-.1.1-.1.2 0-.1-.1-.2-.1-.2h.2z"></path>
  <g fill="#CE8282">
    <path d="m256.9 286.6-.2.2h.3s0-.1-.1-.2zM77 215.2c-.1 98.8 80.1 179 179 179l.1.1c0-98.9-80.2-179.1-179.1-179.1zM148.4 395.2c.1 0 .1.1.2.1v-.3c0 .1-.1.2-.2.2z"></path>
  </g>
  <g fill="#CE8282">
    <path d="m255.3 286.6.2.2h-.3c.1 0 .1-.1.1-.2zM435.3 215.2c.1 98.8-80.1 179-179 179l-.1.1c0-98.9 80.2-179.1 179.1-179.1zM363.8 395.2c-.1 0-.1.1-.2.1v-.3l.2.2z"></path>
  </g>
</svg>
