<svg xmlns="http://www.w3.org/2000/svg" xml:space="preserve" style="enable-background:new 0 0 512 512" viewBox="0 0 512 512" id="money">
  <path d="M256 6C117.9 6 6 117.9 6 256s111.9 250 250 250 250-111.9 250-250S394.1 6 256 6zm0 465c-118.7 0-215-96.2-215-215S137.3 41 256 41s215 96.2 215 215-96.3 215-215 215z"></path>
  <path d="M273.2 149.2v-31h-22.9v30.6c-19.1 1.5-34.3 7.6-45.5 18.2-11.2 10.5-16.8 24-16.8 40.5 0 18.4 5.4 32.4 16.2 42 10.8 9.7 27.7 18.5 50.8 26.7 10.4 4.3 17.5 8.5 21.2 12.5 3.7 4 5.6 9.9 5.6 17.6 0 6.7-1.8 12-5.4 16-3.6 4-9.4 6-17.5 6-9.1 0-16.3-2.4-21.7-7.1-5.4-4.7-8-12.7-8-23.8h-47.7l-.3.9c-.5 21.1 5.6 37 18.1 47.7 12.6 10.8 28.6 17 48.1 18.6v29.1h23v-29.1c18.6-1.7 33.3-7.7 44-18 10.7-10.2 16.1-23.8 16.1-40.7 0-18.3-5.6-32.6-16.7-43s-27.9-19.2-50.2-26.4c-10.7-5.1-17.8-9.6-21.4-13.4-3.5-3.8-5.3-9-5.3-15.4 0-6.9 1.6-12.3 4.9-16.4 3.3-4.1 8.9-6.2 16.8-6.2 7.6 0 13.5 2.3 17.7 7 4.2 4.6 6.3 11.8 6.3 21.4h47.8l.3-.7c.3-17.7-4.7-32.1-15.1-43.3-10.2-11.1-24.4-17.9-42.4-20.3z"></path>
</svg>
