<svg xmlns="http://www.w3.org/2000/svg" width="128pt" height="128pt" style="isolation:isolate" viewBox="0 0 128 128" id="no-image">
  <path d="M 119.96094 25.007812 C 111.94718 25.007811 103.9324 28.057836 97.830078 34.160156 C 97.212203 34.777965 96.633439 35.42114 96.078125 36.076172 L 26.251953 36.076172 C 22.150383 36.076172 18.75 39.321575 18.75 43.347656 L 18.75 128.91602 C 18.75 132.9421 22.150383 136.1875 26.251953 136.1875 L 137.13867 136.1875 C 141.24023 136.1875 144.64062 132.9421 144.64062 128.91602 L 144.64062 75.521484 C 154.21524 63.251496 153.37131 45.440428 142.08984 34.160156 C 135.98813 28.057799 127.9747 25.007815 119.96094 25.007812 z M 119.96094 27.492188 C 127.32999 27.492185 134.69898 30.303842 140.32227 35.927734 C 151.57005 47.174319 151.57013 65.404483 140.32227 76.652344 C 129.07568 87.900127 110.84552 87.900204 99.597656 76.652344 C 88.349796 65.404483 88.349873 47.174319 99.597656 35.927734 C 105.22159 30.303803 112.59188 27.492189 119.96094 27.492188 z M 120.85156 35.775391 C 116.99499 35.758733 113.07223 36.820579 109.43164 38.771484 A 1.250125 1.250125 0 0 0 109.14062 40.759766 L 135.51758 67.068359 A 1.250125 1.250125 0 0 0 137.50195 66.773438 C 141.93224 58.46028 141.74467 48.68936 134.6543 41.597656 C 131.10243 38.046454 126.8773 36.225224 122.5 35.849609 C 121.95284 35.802657 121.4025 35.77777 120.85156 35.775391 z M 120.99219 38.220703 C 121.40546 38.220372 121.81801 38.23757 122.22852 38.271484 C 126.05654 38.587743 129.72413 40.203234 132.88477 43.363281 C 138.74559 49.225199 139.12342 56.809214 135.92773 63.947266 L 112.26172 40.341797 C 115.14939 39.04149 118.09929 38.223019 120.99219 38.220703 z M 26.251953 38.576172 L 94.164062 38.576172 C 85.78865 50.760271 87.005966 67.595811 97.830078 78.419922 C 110.03472 90.624562 129.88642 90.624638 142.08984 78.419922 C 142.10719 78.402573 142.12333 78.384567 142.14062 78.367188 L 142.14062 128.91602 C 142.14062 129.66624 141.9444 130.36841 141.62109 131.00195 L 110.96094 92.417969 C 109.52378 90.60919 106.77372 90.48237 105.17773 92.152344 L 88.722656 109.36719 C 88.052205 110.06872 87.351846 110.0313 86.761719 109.25977 L 65.115234 80.958984 C 64.418852 80.048532 63.38526 79.492348 62.316406 79.494141 C 61.247552 79.495891 60.216444 80.059425 59.523438 80.972656 L 21.662109 130.81055 C 21.399114 130.22847 21.25 129.58861 21.25 128.91602 L 21.25 43.347656 C 21.25 40.726239 23.453523 38.576172 26.251953 38.576172 z M 103.4082 45.339844 A 1.250125 1.250125 0 0 0 102.30859 46.013672 C 98.005954 54.293707 98.231986 63.950738 105.26562 70.984375 C 112.23838 77.957131 121.77482 78.219819 130.01758 74.052734 A 1.250125 1.250125 0 0 0 130.3418 72.058594 L 104.30859 45.710938 A 1.250125 1.250125 0 0 0 103.4082 45.339844 z M 103.89844 48.855469 L 127.19922 72.433594 C 120.15205 75.402837 112.77993 74.963522 107.0332 69.216797 C 101.23348 63.417076 100.82338 55.944065 103.89844 48.855469 z M 44.238281 49.958984 C 37.478238 49.958984 31.970703 55.464566 31.970703 62.224609 C 31.970703 68.984653 37.478238 74.492188 44.238281 74.492188 C 50.998325 74.492188 56.503906 68.984653 56.503906 62.224609 C 56.503906 55.464566 50.998325 49.958984 44.238281 49.958984 z M 44.238281 52.458984 C 49.647224 52.458984 54.003906 56.815666 54.003906 62.224609 C 54.003906 67.633552 49.647224 71.992188 44.238281 71.992188 C 38.829339 71.992188 34.470703 67.633552 34.470703 62.224609 C 34.470703 56.815666 38.829339 52.458984 44.238281 52.458984 z M 62.322266 81.994141 C 62.557787 81.993746 62.829039 82.088416 63.128906 82.480469 L 84.775391 110.7793 C 86.177763 112.61276 88.934747 112.76222 90.529297 111.09375 L 106.98828 93.878906 C 107.65729 93.17888 108.40107 93.213934 109.00391 93.972656 L 139.92383 132.88281 C 139.13143 133.38882 138.17691 133.6875 137.13867 133.6875 L 26.251953 133.6875 C 25.142577 133.6875 24.134765 133.34055 23.3125 132.76953 L 61.515625 82.482422 C 61.813867 82.089403 62.086744 81.994536 62.322266 81.994141 z " color="#000" font-family="sans-serif" font-weight="400" overflow="visible" style="line-height:normal;text-indent:0;text-align:start;text-decoration-line:none;text-decoration-style:solid;text-decoration-color:#000;text-transform:none;block-progression:tb;isolation:auto;mix-blend-mode:normal" transform="scale(.8)"></path>
</svg>
