<svg xmlns="http://www.w3.org/2000/svg" viewBox="0 0 24 24" id="badge">
  <g>
    <path fill="#55abff" d="M21.46,10.37l-1-1.14A2.28,2.28,0,0,1,20,7.94l-.12-1.49a2.49,2.49,0,0,0-2.3-2.29L16,4a2.28,2.28,0,0,1-1.29-.53l-1.14-1a2.49,2.49,0,0,0-3.24,0l-1.14,1a2.28,2.28,0,0,1-1.29.53l-1.49.12a2.49,2.49,0,0,0-2.29,2.3L4,8a2.28,2.28,0,0,1-.53,1.29l-1,1.14a2.49,2.49,0,0,0,0,3.24l1,1.14a2.28,2.28,0,0,1,.53,1.29l.12,1.49a2.49,2.49,0,0,0,2.3,2.29L8,20a2.28,2.28,0,0,1,1.29.53l1.14,1a2.49,2.49,0,0,0,3.24,0l1.14-1A2.28,2.28,0,0,1,16.06,20l1.49-.12a2.49,2.49,0,0,0,2.29-2.3L20,16a2.28,2.28,0,0,1,.53-1.29l1-1.14A2.49,2.49,0,0,0,21.46,10.37Z"></path>
    <path fill="#dadde2" d="M14.79,8.79l-4.29,4.3-1.29-1.3a1,1,0,1,0-1.42,1.42l2,2a1,1,0,0,0,1.42,0l5-5a1,1,0,0,0-1.42-1.42Z"></path>
  </g>
</svg>
