<svg xmlns="http://www.w3.org/2000/svg" viewBox="0 0 24 24" id="website">
  <path d="m12,2.25C6.62,2.25,2.25,6.62,2.25,12s4.37,9.75,9.75,9.75,9.75-4.37,9.75-9.75S17.38,2.25,12,2.25Zm0,18c-1.1,0-2.28-1.74-2.87-4.5h5.74c-.59,2.76-1.77,4.5-2.87,4.5Zm-3.12-6c-.08-.71-.13-1.46-.13-2.25s.05-1.54.13-2.25h6.23c.08.71.13,1.46.13,2.25s-.05,1.54-.13,2.25h-6.23Zm-5.13-2.25c0-.78.12-1.53.32-2.25h3.3c-.08.72-.12,1.47-.12,2.25s.04,1.53.12,2.25h-3.3c-.2-.72-.32-1.47-.32-2.25ZM12,3.75c1.1,0,2.28,1.74,2.87,4.5h-5.74c.59-2.76,1.77-4.5,2.87-4.5Zm4.63,6h3.3c.2.72.32,1.47.32,2.25s-.12,1.53-.32,2.25h-3.3c.08-.72.12-1.47.12-2.25s-.04-1.53-.12-2.25Zm2.71-1.5h-2.93c-.3-1.57-.79-2.91-1.42-3.93,1.89.74,3.43,2.14,4.35,3.93Zm-10.33-3.93c-.63,1.02-1.12,2.36-1.42,3.93h-2.93c.92-1.79,2.46-3.19,4.35-3.93Zm-4.35,11.43h2.93c.3,1.57.79,2.91,1.42,3.93-1.88-.74-3.43-2.14-4.35-3.93Zm10.33,3.93c.63-1.02,1.12-2.36,1.42-3.93h2.93c-.92,1.79-2.46,3.19-4.35,3.93Z"></path>
</svg>
