<svg xmlns="http://www.w3.org/2000/svg" width="155" height="155" id="jewellery">
  <circle cx="77.5" cy="77.5" r="77.5" fill="#F67656"></circle>
  <path fill="#CCCBCA" d="m90.475 72.883-12.978 39-12.979-39z"></path>
  <path fill="#FFF" d="m51.502 72.883 25.995 39-38.997-39z"></path>
  <path fill="#E6E5E5" d="m64.518 72.883 12.979 39-25.995-39z"></path>
  <path fill="#FFF" d="m103.488 72.883-25.991 39 39.003-39z"></path>
  <path fill="#E6E5E5" d="m90.475 72.883-12.978 39 25.991-39zM38.5 69.366l16.255-16.249-3.253 16.249z"></path>
  <path fill="#CCCBCA" d="m64.518 69.366 12.979-16.249 12.978 16.249z"></path>
  <path fill="#FFF" d="m54.755 53.117 9.763 16.249 12.979-16.249zM100.225 53.117l-9.75 16.249-12.978-16.249z"></path>
  <path fill="#E6E5E5" d="m116.5 69.366-16.275-16.249 3.263 16.249z"></path>
  <path fill="#CCCBCA" d="m103.488 69.366-3.263-16.249-9.75 16.249zM51.502 69.366l3.253-16.249 9.75 16.249zM103.488 69.366H116.5v3.517h-13.012z"></path>
  <path fill="#FFF" d="M90.476 69.366h13.013v3.517H90.476z"></path>
  <path fill="#CCCBCA" d="M38.5 69.366h13.012v3.517H38.5z"></path>
  <path fill="#FFF" d="M51.504 69.366h13.014v3.517H51.504z"></path>
  <path fill="#E6E5E5" d="M64.518 69.366h25.98v3.517h-25.98z"></path>
  <path fill="#FFF" d="M44.065 93.521a7.02 7.02 0 0 0-7.016 7.015 7.02 7.02 0 0 0-7.015-7.015c3.871 0 7.015-3.146 7.015-7.011a7.02 7.02 0 0 0 7.016 7.011zM104.5 35.447a5.616 5.616 0 0 0-5.611 5.613 5.613 5.613 0 0 0-5.605-5.613c3.094 0 5.605-2.521 5.605-5.611a5.619 5.619 0 0 0 5.611 5.611zm15.535 18.801a3.74 3.74 0 0 0-3.742 3.736 3.738 3.738 0 0 0-3.736-3.736c2.061 0 3.736-1.686 3.736-3.748a3.75 3.75 0 0 0 3.742 3.748zM59.574 42.39a3.36 3.36 0 0 0-3.358 3.36 3.362 3.362 0 0 0-3.36-3.36 3.369 3.369 0 0 0 3.36-3.368 3.369 3.369 0 0 0 3.358 3.368z"></path>
</svg>
