<svg width="250" height="250" viewBox="0 0 250 250" fill="none" xmlns="http://www.w3.org/2000/svg">
<path d="M49.7 226.86C39.81 225.05 31.52 219.16 27.95 209.57C26.97 206.94 25.5 201.23 26.54 198.65C26.78 198.05 28.78 196.12 29.27 196.12H57.79C48.96 188.1 40.94 179.2 35.47 168.48C23.37 144.79 26.5 120.55 26.24 94.78C26.34 92.29 28.15 90.89 30.52 90.57C39.78 89.31 51.66 91.41 61.19 90.57C64.44 90.97 66.69 93.88 64.76 96.9C64.51 97.29 63.01 98.63 62.85 98.63H34.33C34.94 113.59 32.97 129.28 35.67 144.01C39.61 165.51 53.56 185.42 72.58 196.1L150.42 195.9C168.39 185.2 181.8 166.91 186.24 146.36C189.59 130.87 187.44 114.4 188.06 98.62H103.31C103.14 98.62 101.65 97.28 101.4 96.89C99.37 93.72 101.94 90.74 105.33 90.53L191.11 90.51C192.86 90.33 196.15 92.1 196.15 93.97V103.07H229.12C230.95 103.07 232.57 104.81 233.37 106.31V140.29C232.55 142.9 232.29 145.66 231.45 148.28C227.26 161.44 215.46 172.01 201.83 174.48C195.58 175.61 189.21 174.79 182.88 175.16C178.16 183.29 171.33 189.7 164.59 196.11H202.82C203.31 196.11 205.31 198.04 205.55 198.64C206.59 201.22 205.12 206.93 204.14 209.56C200.57 219.15 192.28 225.04 182.39 226.85H49.7V226.86ZM225.27 111.57H196.14V119.26H212.93C215.12 119.26 216.93 121.36 217.19 123.5C217.72 127.88 217.47 138.65 216.26 142.81C213.04 153.84 202.16 160.11 190.95 158.96L187.66 167H198.38C210.53 167 225.28 151.32 225.28 139.29V111.58L225.27 111.57ZM209.09 127.75H196.14C196.49 135.55 195.06 143.2 193.71 150.81C199.92 151.35 206.17 147.05 208.19 141.22C208.37 140.69 209.09 138.38 209.09 138.07V127.75ZM197.36 204.21H34.74C36.74 212.12 43.37 217.93 51.53 218.77L179.78 218.79C188.44 218.19 195.17 212.54 197.36 204.21Z" fill="black"/>
<path d="M130.9 29.13C132.44 28.78 134.23 28.98 135.29 30.23C138.09 33.53 133.82 36.53 133.22 39.94C132.02 46.85 136.72 49.13 139.52 54.31C143.13 60.99 143.16 68.7 139.58 75.43C137.85 78.69 132.68 86.2 128.99 81.02C126.56 77.61 130.18 75.2 131.83 72.54C139.89 59.52 125.57 54.74 124.93 43.01C124.74 39.56 127 30.01 130.89 29.12L130.9 29.13Z" fill="black"/>
<path d="M109.08 19.8201C110.63 19.6001 112.93 20.5301 113.44 22.1501C114.58 25.7401 111.42 27.4101 110.89 30.5601C109.55 38.4101 115.35 40.8701 118.02 47.1101C121.55 55.3901 119.63 65.0701 113.43 71.5301C110.08 75.0201 105.37 73.7501 105.93 68.8901C106.2 66.5401 109.65 63.9101 110.7 61.1201C115.31 48.9201 103.58 45.4601 102.69 34.9301C102.35 30.9601 104.2 20.5201 109.08 19.8201Z" fill="black"/>
<path d="M85.99 29.13C88.17 28.63 90.39 29.31 91.1 31.53C92.06 34.55 89.86 35.58 88.92 38.12C85.93 46.22 92.17 48.98 95.08 55.06C98.27 61.71 98.16 68.91 94.67 75.43C92.99 78.56 88.03 86 84.27 81.25C81.48 77.72 85.41 75.16 87.09 72.3C94.97 58.86 80.16 54.62 80.01 42.19C79.97 39.04 82.51 29.93 85.99 29.13Z" fill="black"/>
<path d="M171.76 125.81C173.52 125.42 175.46 126.43 176.27 128.01C177.48 130.37 175.98 139.8 175.39 142.81C173.54 152.35 168.69 162.56 162.72 170.19C161.42 171.85 157.33 176.86 155.44 177.1C152.38 177.49 150.21 174.87 151.02 171.83C151.43 170.29 156.4 165.19 157.79 163.24C164.6 153.7 167.28 144.37 168.62 132.81C168.91 130.34 168.11 126.62 171.75 125.81H171.76Z" fill="black"/>
<path d="M144.24 180.06C148.33 183.68 142.55 190.02 138.68 186.23C134.81 182.44 140.58 176.83 144.24 180.06Z" fill="black"/>
<path d="M81.4001 97.6699C78.0101 94.2999 82.2401 88.7699 86.3301 91.3299C91.3801 94.4899 85.3901 101.63 81.4001 97.6699Z" fill="black"/>
</svg>
